#!OML:ASF E:\CV Data\Top Level 1\Subject 1\Session 1\player.ASF
:FULLY-SPECIFIED
:DEGREES
1237
root -3.31117 17.2498 2.48833 3.17396 -7.9524 -5.28304
lowerback 8.29888 -0.287146 1.61017
upperback -0.238585 0.0565605 5.88936
thorax -4.92435 0.0588422 5.26469
lowerneck -20.0791 -8.40662 -11.3236
upperneck 17.3142 -11.1734 12.9167
head 10.2542 -4.55327 4.70772
rclavicle -3.74709e-014 2.38542e-014
rhumerus 308.087 328.287 671.27
rradius 14.4435
rwrist 8.30421
rhand -18.0216 -3.26822
rfingers 7.12502
rthumb 8.24948 -33.0872
lclavicle -3.74709e-014 2.38542e-014
lhumerus -34.1187 0.50807 88.2213
lradius 42.1938
lwrist -8.54191
lhand -11.3421 3.68295
lfingers 7.12502
lthumb 14.6909 33.1425
rfemur -15.842 5.80393 25.2187
rtibia 39.4377
rfoot -24.3095 -11.365
rtoes 2.11298
lfemur -15.4778 4.68391 -15.0834
ltibia 39.5624
lfoot -20.9926 1.97415
ltoes -1.54872
1238
root -3.31358 17.2522 2.48638 3.25111 -7.92786 -5.29443
lowerback 8.19396 -0.352024 1.47769
upperback -0.320426 -0.0413082 5.93916
thorax -4.94331 0.0152217 5.40581
lowerneck -20.0456 -8.34803 -11.2654
upperneck 17.6102 -11.136 12.8642
head 10.3412 -4.53429 4.69184
rclavicle 1.20265e-014 1.90833e-014
rhumerus 307.751 329.146 671.346
rradius 14.6289
rwrist 7.87338
rhand -17.5035 -2.89744
rfingers 7.12502
rthumb 8.74945 -32.6961
lclavicle 1.20265e-014 1.90833e-014
lhumerus -34.1115 0.4058 88.0854
lradius 41.858
lwrist -8.81367
lhand -10.9276 3.6745
lfingers 7.12502
lthumb 15.0903 33.1044
rfemur -15.9318 5.82658 25.2397
rtibia 39.4322
rfoot -24.2778 -11.4127
rtoes 2.16678
lfemur -15.2589 4.38754 -15.1321
ltibia 39.0455
lfoot -21.0192 2.24077
ltoes -0.91292
1239
root -3.31565 17.255 2.48421 3.32602 -7.88715 -5.28895
lowerback 8.09648 -0.421862 1.3393
upperback -0.412158 -0.145921 5.97459
thorax -4.97561 -0.031421 5.53612
lowerneck -19.9905 -8.29217 -11.22
upperneck 17.921 -11.1013 12.8071
head 10.4306 -4.51864 4.67666
rclavicle 9.83984e-015 0
rhumerus 307.471 329.964 671.364
rradius 14.8138
rwrist 7.39675
rhand -17.1404 -2.50155
rfingers 7.12502
rthumb 9.09984 -32.2852
lclavicle 9.83984e-015 0
lhumerus -34.1139 0.338297 87.9292
lradius 41.4978
lwrist -9.09277
lhand -10.5137 3.70475
lfingers 7.12502
lthumb 15.4889 33.1043
rfemur -16.0222 5.8379 25.2418
rtibia 39.4271
rfoot -24.2464 -11.467
rtoes 2.2274
lfemur -15.0729 4.10778 -15.1862
ltibia 38.5895
lfoot -21.0355 2.45863
ltoes -0.382884
1240
root -3.31752 17.2586 2.4817 3.40248 -7.82609 -5.26476
lowerback 7.99883 -0.498434 1.19408
upperback -0.512242 -0.260319 5.99425
thorax -5.01503 -0.0826256 5.65477
lowerneck -19.9188 -8.23842 -11.183
upperneck 18.2414 -11.0681 12.7433
head 10.521 -4.50556 4.66083
rclavicle 1.30204e-014 1.59028e-015
rhumerus 307.23 330.713 671.355
rradius 14.9935
rwrist 6.91573
rhand -16.9321 -2.08565
rfingers 7.12502
rthumb 9.3009 -31.8605
lclavicle 1.30204e-014 1.59028e-015
lhumerus -34.1213 0.309612 87.7501
lradius 41.1104
lwrist -9.37149
lhand -10.1173 3.76734
lfingers 7.12502
lthumb 15.8707 33.1369
rfemur -16.1168 5.84012 25.2233
rtibia 39.4212
rfoot -24.2175 -11.5306
rtoes 2.30826
lfemur -14.9284 3.83678 -15.2465
ltibia 38.1896
lfoot -21.0286 2.63544
ltoes 0.0305684
1241
root -3.31919 17.2628 2.47902 3.47522 -7.74747 -5.22145
lowerback 7.90431 -0.579174 1.04436
upperback -0.617536 -0.381017 5.99558
thorax -5.06046 -0.136778 5.75722
lowerneck -19.8614 -8.19082 -11.1374
upperneck 18.583 -11.0422 12.6601
head 10.6211 -4.49648 4.6353
rclavicle -2.78299e-015 1.59028e-014
rhumerus 307.004 331.342 671.373
rradius 15.1588
rwrist 6.48611
rhand -16.884 -1.67194
rfingers 7.12502
rthumb 9.34727 -31.4447
lclavicle -2.78299e-015 1.59028e-014
lhumerus -34.1296 0.315504 87.5483
lradius 40.6925
lwrist -9.64245
lhand -9.76259 3.84492
lfingers 7.12502
lthumb 16.2123 33.187
rfemur -16.208 5.83833 25.1847
rtibia 39.4125
rfoot -24.19 -11.6064
rtoes 2.4014
lfemur -14.8214 3.57888 -15.3132
ltibia 37.8432
lfoot -21.0043 2.74525
ltoes 0.32457
1242
root -3.3207 17.2679 2.47624 3.54777 -7.65787 -5.15817
lowerback 7.80884 -0.664937 0.886668
upperback -0.72956 -0.509533 5.98096
thorax -5.11106 -0.194485 5.84811
lowerneck -19.8095 -8.14404 -11.086
upperneck 18.9325 -11.0146 12.5586
head 10.7237 -4.48801 4.60244
rclavicle -2.68359e-014 2.8625e-014
rhumerus 306.79 331.848 671.435
rradius 15.3047
rwrist 6.12697
rhand -16.9925 -1.27462
rfingers 7.12502
rthumb 9.24261 -31.052
lclavicle -2.68359e-014 2.8625e-014
lhumerus -34.1514 0.367458 87.3224
lradius 40.2568
lwrist -9.89776
lhand -9.46281 3.93367
lfingers 7.12502
lthumb 16.5009 33.252
rfemur -16.2992 5.8377 25.1243
rtibia 39.4003
rfoot -24.1648 -11.693
rtoes 2.51218
lfemur -14.7558 3.3523 -15.388
ltibia 37.5464
lfoot -20.9626 2.76566
ltoes 0.526178
1243
root -3.32211 17.2738 2.47314 3.62047 -7.56621 -5.07798
lowerback 7.71657 -0.754077 0.721208
upperback -0.847207 -0.643416 5.95358
thorax -5.16822 -0.254461 5.93054
lowerneck -19.7942 -8.09878 -11.0279
upperneck 19.2997 -10.9844 12.4385
head 10.8381 -4.47831 4.56165
rclavicle 4.87022e-015 1.98785e-014
rhumerus 306.589 332.214 671.561
rradius 15.4255
rwrist 5.85307
rhand -17.2352 -0.892155
rfingers 7.12502
rthumb 9.00838 -30.6798
lclavicle 4.87022e-015 1.98785e-014
lhumerus -34.1788 0.477306 87.0714
lradius 39.793
lwrist -10.1317
lhand -9.20811 4.04611
lfingers 7.12502
lthumb 16.7461 33.3439
rfemur -16.3917 5.84707 25.0461
rtibia 39.3854
rfoot -24.1383 -11.7923
rtoes 2.63942
lfemur -14.7293 3.17584 -15.4679
ltibia 37.2943
lfoot -20.9036 2.69168
ltoes 0.703256
1244
root -3.32336 17.2804 2.4699 3.69419 -7.48086 -4.98049
lowerback 7.61936 -0.841602 0.552363
upperback -0.964829 -0.776505 5.90814
thorax -5.22211 -0.314051 5.99509
lowerneck -19.7672 -8.05693 -10.9808
upperneck 19.6519 -10.9571 12.3277
head 10.9472 -4.47057 4.52561
rclavicle -4.47266e-015 -4.13472e-014
rhumerus 306.399 332.432 671.743
rradius 15.5258
rwrist 5.64243
rhand -17.6058 -0.556232
rfingers 7.12502
rthumb 8.65072 -30.359
lclavicle -4.47266e-015 -4.13472e-014
lhumerus -34.1973 0.630902 86.7901
lradius 39.2947
lwrist -10.3296
lhand -9.00796 4.16332
lfingers 7.12502
lthumb 16.9388 33.4447
rfemur -16.4874 5.87025 24.9487
rtibia 39.3702
rfoot -24.1124 -11.9006
rtoes 2.7897
lfemur -14.7347 3.05379 -15.5558
ltibia 37.0783
lfoot -20.8328 2.5469
ltoes 0.873291
1245
root -3.32434 17.287 2.46638 3.76343 -7.41152 -4.87346
lowerback 7.53216 -0.927839 0.384599
upperback -1.08527 -0.907745 5.85171
thorax -5.28444 -0.372552 6.04727
lowerneck -19.7458 -8.01362 -10.9438
upperneck 19.9895 -10.9216 12.2164
head 11.0521 -4.46016 4.49206
rclavicle -3.97569e-015 3.33958e-014
rhumerus 306.228 332.524 671.976
rradius 15.6045
rwrist 5.4775
rhand -18.0785 -0.27358
rfingers 7.12502
rthumb 8.19455 -30.0947
lclavicle -3.97569e-015 3.33958e-014
lhumerus -34.2154 0.844702 86.4804
lradius 38.7591
lwrist -10.4913
lhand -8.85964 4.29704
lfingers 7.12502
lthumb 17.0815 33.5661
rfemur -16.5813 5.91348 24.8411
rtibia 39.3575
rfoot -24.0878 -12.0168
rtoes 2.95985
lfemur -14.7564 2.98417 -15.646
ltibia 36.89
lfoot -20.7594 2.35369
ltoes 1.03731
1246
root -3.32486 17.2934 2.46274 3.83122 -7.368 -4.76452
lowerback 7.44281 -1.00448 0.232002
upperback -1.20013 -1.02593 5.77794
thorax -5.341 -0.425281 6.07015
lowerneck -19.7242 -7.97545 -10.9096
upperneck 20.3064 -10.8918 12.1135
head 11.1514 -4.45216 4.46059
rclavicle -1.10325e-014 -2.94201e-014
rhumerus 306.075 332.486 672.238
rradius 15.6702
rwrist 5.3284
rhand -18.6304 -0.0421561
rfingers 7.12502
rthumb 7.66186 -29.8834
lclavicle -1.10325e-014 -2.94201e-014
lhumerus -34.2116 1.08769 86.138
lradius 38.1823
lwrist -10.6055
lhand -8.77395 4.43804
lfingers 7.12502
lthumb 17.164 33.6999
rfemur -16.6768 5.97737 24.7294
rtibia 39.3483
rfoot -24.0653 -12.1301
rtoes 3.15086
lfemur -14.7857 2.96105 -15.7343
ltibia 36.7205
lfoot -20.6941 2.13446
ltoes 1.18338
1247
root -3.32462 17.2991 2.45917 3.89855 -7.35995 -4.66602
lowerback 7.35026 -1.06886 0.107253
upperback -1.3098 -1.12602 5.69259
thorax -5.39255 -0.470104 6.06203
lowerneck -19.6995 -7.94311 -10.8835
upperneck 20.6009 -10.8662 12.0147
head 11.2437 -4.4468 4.43085
rclavicle -7.05686e-015 2.38542e-014
rhumerus 305.938 332.322 672.536
rradius 15.7163
rwrist 5.20796
rhand -19.2351 0.148995
rfingers 7.12502
rthumb 7.07819 -29.7126
lclavicle -7.05686e-015 2.38542e-014
lhumerus -34.1843 1.36048 85.7685
lradius 37.5599
lwrist -10.6784
lhand -8.74055 4.60749
lfingers 7.12502
lthumb 17.1962 33.8666
rfemur -16.772 6.06326 24.625
rtibia 39.3409
rfoot -24.0431 -12.2328
rtoes 3.34667
lfemur -14.8124 2.96924 -15.8127
ltibia 36.5649
lfoot -20.6427 1.92291
ltoes 1.30815
